<?xml version="1.0" encoding="UTF-8"?>
<svg width="974px" height="728px" viewBox="0 0 974 728" version="1.1" xmlns="http://www.w3.org/2000/svg" xmlns:xlink="http://www.w3.org/1999/xlink">
    <!-- Generator: Sketch 47.1 (45422) - http://www.bohemiancoding.com/sketch -->
    <title>Desktop Copy 2</title>
    <desc>Created with Sketch.</desc>
    <defs></defs>
    <g id="Page-1" stroke="none" stroke-width="1" fill="none" fill-rule="evenodd">
        <g id="Desktop-Copy-2" stroke="#7055A4" stroke-width="5">
            <g id="sink-03" transform="translate(589.000000, 44.000000)">
                <path d="M130.853232,1.25301597 L3.39444538,60.3498952 C0.225199877,61.733897 0.225199877,66.162703 3.2566521,67.8235052 L238.883166,193.352473 C242.741378,195.428476 247.150763,195.566876 251.146768,193.629274 L378.605555,134.532395 C381.7748,133.148393 381.7748,128.719587 378.743348,127.058785 L143.116834,1.66821652 C139.258622,-0.407786261 134.711444,-0.546186446 130.853232,1.25301597 Z" id="Shape"></path>
                <path d="M1,83.5 C1,85.5 1.48391859,87.6699265 3,88.5 L239.901824,214.353123 C243.760941,216.428307 248.171359,216.566653 252.168301,214.629815 L378.5,156 C380.016081,155.308272 381,153.383456 381,152" id="Shape"></path>
                <path d="M1,65 L1,84" id="Shape"></path>
                <path d="M240,193 L240,214" id="Shape"></path>
                <path d="M252,193 L252,214" id="Shape"></path>
                <path d="M381,131 L381,152" id="Shape"></path>
                <ellipse id="Oval" transform="translate(135.829155, 67.049487) rotate(-74.020764) translate(-135.829155, -67.049487) " cx="135.829155" cy="67.049487" rx="30.5" ry="53.5"></ellipse>
                <path d="M131.220101,115.007094 C142.724808,107.349894 150.902195,87.834994 150.902195,64.969887 C150.902195,38.2373907 139.724632,16.0842479 125.120308,12.1061237" id="Oval-Copy" transform="translate(138.011251, 63.556609) rotate(-74.020764) translate(-138.011251, -63.556609) "></path>
                <path d="M242.220101,174.007094 C253.724808,166.349894 261.902195,146.834994 261.902195,123.969887 C261.902195,97.2373907 250.724632,75.0842479 236.120308,71.1061237" id="Oval-Copy-2" transform="translate(249.011251, 122.556609) rotate(-74.020764) translate(-249.011251, -122.556609) "></path>
                <ellipse id="Oval" transform="translate(246.829155, 126.049487) rotate(-74.020764) translate(-246.829155, -126.049487) " cx="246.829155" cy="126.049487" rx="30.5" ry="53.5"></ellipse>
            </g>
        </g>
    </g>
</svg>