<?xml version="1.0" encoding="UTF-8"?>
<svg width="974px" height="728px" viewBox="0 0 974 728" version="1.1" xmlns="http://www.w3.org/2000/svg" xmlns:xlink="http://www.w3.org/1999/xlink">
    <!-- Generator: Sketch 47.1 (45422) - http://www.bohemiancoding.com/sketch -->
    <title>Desktop Copy 2</title>
    <desc>Created with Sketch.</desc>
    <defs></defs>
    <g id="Page-1" stroke="none" stroke-width="1" fill="none" fill-rule="evenodd">
        <g id="Desktop-Copy-2">
            <g id="toilet_new-copy" transform="translate(40.000000, 275.000000)">
                <g id="Group" transform="translate(203.000000, 237.500000) rotate(-19.000000) translate(-203.000000, -237.500000) translate(58.000000, 37.000000)">
                    <path d="M180.40942,400.475131 L181.67029,361.634817 L192.702899,318.385602 C192.807971,317.965707 193.228261,317.650785 193.753623,317.650785 C199.427536,317.650785 234.441279,316.039828 257.962013,296.870553 L265.728261,319.120419 L265.728261,349.037958 L180.619565,400.370157 L100.764493,358.485602 L100.711982,287.884956 C80.039682,274.815624 76.1775362,253.301832 76.1775362,253.301832 L6.0942029,212.257068 C0.315217391,208.897906 0.945652174,203.229319 0.945652174,203.229319 L0.525362319,62.3544503 L29.6304348,79.9900524 C29.6304348,79.9900524 35.0942029,84.0840314 43.3949275,80.5149215 L138.380435,25.7185864 C138.380435,25.7185864 145.630435,22.8842932 139.115942,18.7903141 L109.275362,1.8895288 C109.275362,1.8895288 104.442029,-1.57460733 98.3478261,1.8895288 L4.62318841,56.0560209 C4.62318841,56.0560209 0.210144928,58.7853403 0.525362319,62.4594241" id="Shape" stroke="#FFFFFF" stroke-width="3.363"></path>
                    <path d="M100.764493,287.943194 C100.764493,287.943194 149.30503,319.755538 193.753623,317.650785" id="Shape" stroke="#FFFFFF" stroke-width="3.363"></path>
                    <path d="M258.231893,297.376969 C263.858714,292.124409 287.139462,264.051992 284.277604,215.524109" id="Shape" stroke="#FFFFFF" stroke-width="3.363"></path>
                    <path d="M141.742754,22.0445026 L141.866974,141.868785" id="Shape" stroke="#FFFFFF" stroke-width="3.363"></path>
                    <path d="M42.9746377,80.8298429 L42.9746377,199.870157 C42.9746377,199.870157 34.9891304,203.649215 29.3152174,198.820419 L29.3152174,79.8850785" id="Shape" stroke="#FFFFFF" stroke-width="3.363"></path>
                    <path d="M42.9746377,199.870157 L83.4847546,178.942281" id="Shape" stroke="#FFFFFF" stroke-width="3.363"></path>
                    <polyline id="Shape" stroke="#FFFFFF" stroke-width="3.363" points="0.84057971 182.759424 29.4202899 199.345288 82.6828386 229.740575"></polyline>
                    <path d="M266.253623,233.356806 C255.431159,258.865445 210.880435,268.837958 163.492754,259.180366 C114.949275,249.207853 85.0036232,218.975393 89.8369565,188.42801 C89.942029,187.693194 90.1521739,186.958377 90.4673913,186.22356 C103.811594,152.002094 140.692029,148.85288 190.286232,159.770157 C240.300725,170.792408 277.181159,207.323298 266.253623,233.356806 Z" id="Shape"></path>
                    <path d="M285.902174,237.660733 C270.981884,272.931937 223.278986,290.882461 157.923913,277.445812 C89.942029,263.484293 60.1014493,225.273822 69.7681159,183.494241 C77.3333333,150.847382 121.463768,127.648168 196.380435,143.709162 C265.518116,159.350262 301.032609,201.759686 285.902174,237.660733 Z" id="Shape"></path>
                    <path d="M195.574219,285.685031 C167.705815,285.685031 138.922026,277.836754 116.749354,264.076788 C91.5253969,248.48216 76.9809379,226.771992 76.6758093,204.348344 C76.4723903,185.390169 86.2365027,168.572433 104.340794,156.749054 C120.410896,146.25071 141.566473,140.746724 165.468206,140.746724 C193.33661,140.746724 222.1204,148.595001 244.293072,162.354967 C269.517029,177.949595 284.163197,199.761689 284.468326,222.083411 C284.671745,240.939661 274.805923,257.859322 256.803341,269.580775 C240.52982,280.079119 219.374243,285.685031 195.574219,285.685031 Z" id="Shape" stroke="#FFFFFF" stroke-width="3.363"></path>
                    <path d="M245.763988,252.765521 C216.762601,271.660208 164.481188,269.088157 129.06793,247.126792 C93.5560272,225.165428 88.4265301,191.926605 117.329273,173.130843 C146.33066,154.236155 198.612073,156.808207 234.025331,178.769572 C269.635878,200.730936 274.864019,233.870833 245.763988,252.765521 Z" id="Shape" stroke="#FFFFFF" stroke-width="3.363"></path>
                </g>
            </g>
        </g>
    </g>
</svg>