<?xml version="1.0" encoding="UTF-8"?>
<svg width="974px" height="728px" viewBox="0 0 974 728" version="1.1" xmlns="http://www.w3.org/2000/svg" xmlns:xlink="http://www.w3.org/1999/xlink">
    <!-- Generator: Sketch 47.1 (45422) - http://www.bohemiancoding.com/sketch -->
    <title>Desktop Copy 2</title>
    <desc>Created with Sketch.</desc>
    <defs></defs>
    <g id="Page-1" stroke="none" stroke-width="1" fill="none" fill-rule="evenodd">
        <g id="Desktop-Copy-2" stroke-width="5" stroke="#7055A4">
            <g id="toilet" transform="translate(263.000000, 508.500000) rotate(-19.000000) translate(-263.000000, -508.500000) translate(106.000000, 299.000000)">
                <g id="Layer_2">
                    <g id="Group">
                        <path d="M188.496739,418.451571 L189.81413,377.867801 L201.341304,332.677225 C201.451087,332.238482 201.890217,331.909424 202.43913,331.909424 C208.367391,331.909424 241.96087,333.993455 271.053261,314.25 L277.640217,333.445026 L277.640217,364.705497 L188.716304,418.341885 L105.281522,374.577225 L105.281522,300.868325 C85.7402174,290.886911 79.5923913,264.67199 79.5923913,264.67199 L6.3673913,221.784817 C0.329347826,218.274869 0.988043478,212.351832 0.988043478,212.351832 C0.783671182,146.767732 0.63304506,97.7504919 0.536165114,65.3001117 C0.535460519,65.0641045 10.676304,71.15761 30.9586957,83.5806283 C30.9586957,83.5806283 36.6673913,87.858377 45.3402174,84.1290576 L144.583696,26.8730366 C144.583696,26.8730366 152.158696,23.9115183 145.352174,19.6337696 L114.173913,1.97434555 C114.173913,1.97434555 109.123913,-1.64528796 102.756522,1.97434555 L4.83043478,58.5722513 C4.83043478,58.5722513 0.219565217,61.4240838 0.548913043,65.263089" id="Shape"></path>
                        <path d="M105.281522,300.868325 C105.281522,300.868325 164.56413,332.896597 202.43913,331.909424" id="Shape"></path>
                        <path d="M271.053261,314.359686 C271.053261,314.359686 298.841243,300.181426 299.060809,238.099227" id="Shape"></path>
                        <path d="M148.096739,23.0340314 L148.078447,139.576521" id="Shape"></path>
                        <path d="M44.901087,84.4581152 L44.901087,208.841885 C44.901087,208.841885 36.5576087,212.790576 30.6293478,207.745026 L30.6293478,83.4709424" id="Shape"></path>
                        <path d="M44.901087,208.841885 L73.3855669,193.708061" id="Shape"></path>
                        <polyline id="Shape" points="0.87826087 190.963089 30.7391304 208.293455 89.9838918 242.25696"></polyline>
                        <path d="M298.718478,248.328796 C283.129348,285.183246 233.288043,303.939529 165.003261,289.899738 C93.973913,275.311518 62.7956522,235.385864 72.8956522,191.73089 C80.8,157.618586 126.798913,132.610209 205.183696,150.159948 C277.420652,166.503141 314.527174,210.81623 298.718478,248.328796 Z" id="Shape" transform="translate(186.680940, 219.479635) rotate(10.000000) translate(-186.680940, -219.479635) "></path>
                        <path d="M274.798357,239.111673 C262.505284,265.391623 223.202076,278.76624 169.35495,268.75483 C113.34355,258.35235 88.7574022,229.882404 96.7219289,198.753178 C102.955037,174.428581 139.228262,156.595758 201.039914,169.11002 C258.003595,180.763926 287.264573,212.362438 274.798357,239.111673 Z" id="Shape" transform="translate(186.449252, 218.540086) rotate(10.000000) translate(-186.449252, -218.540086) "></path>
                    </g>
                </g>
            </g>
        </g>
    </g>
</svg>