<?xml version="1.0" encoding="UTF-8"?>
<svg width="32px" height="24px" viewBox="0 0 32 24" version="1.1" xmlns="http://www.w3.org/2000/svg" xmlns:xlink="http://www.w3.org/1999/xlink">
    <!-- Generator: Sketch 47.1 (45422) - http://www.bohemiancoding.com/sketch -->
    <title>volume-mute-solid</title>
    <desc>Created with Sketch.</desc>
    <defs></defs>
    <g id="Page-1" stroke="none" stroke-width="1" fill="none" fill-rule="evenodd">
        <g id="volume-mute-solid" fill-rule="nonzero" fill="#7055A4">
            <path d="M13.4131774,0.440625 L7.86339181,6 L1.49707602,6 C0.66994152,6 0,6.67125 0,7.5 L0,16.5 C0,17.328125 0.66994152,18 1.49707602,18 L7.86339181,18 L13.4131774,23.559375 C14.3507212,24.49875 15.9688109,23.83875 15.9688109,22.49875 L15.9688109,1.50125 C15.9688109,0.16 14.3494737,-0.4975 13.4131774,0.440625 Z M28.7962573,12 L31.6431969,9.1475 C32.0361793,8.75375 32.0361793,8.115 31.6431969,7.72125 L30.2197271,6.295 C29.8267446,5.90125 29.1892398,5.90125 28.7962573,6.295 L25.9493177,9.1475 L23.1023782,6.295 C22.7093957,5.90125 22.0718908,5.90125 21.6789084,6.295 L20.2554386,7.72125 C19.8624561,8.115 19.8624561,8.75375 20.2554386,9.1475 L23.1023782,12 L20.2560624,14.851875 C19.8630799,15.245625 19.8630799,15.884375 20.2560624,16.278125 L21.6795322,17.704375 C22.0725146,18.098125 22.7100195,18.098125 23.1030019,17.704375 L25.9493177,14.8525 L28.7962573,17.705 C29.1892398,18.09875 29.8267446,18.09875 30.2197271,17.705 L31.6431969,16.27875 C32.0361793,15.885 32.0361793,15.24625 31.6431969,14.8525 L28.7962573,12 Z" id="Shape"></path>
        </g>
    </g>
</svg>