<?xml version="1.0" encoding="UTF-8"?>
<svg width="30px" height="24px" viewBox="0 0 30 24" version="1.1" xmlns="http://www.w3.org/2000/svg" xmlns:xlink="http://www.w3.org/1999/xlink">
    <!-- Generator: Sketch 47.1 (45422) - http://www.bohemiancoding.com/sketch -->
    <title>volume-up-solid</title>
    <desc>Created with Sketch.</desc>
    <defs></defs>
    <g id="Page-1" stroke="none" stroke-width="1" fill="none" fill-rule="evenodd">
        <g id="volume-up-solid" fill-rule="nonzero" fill="#7055A4">
            <path d="M13.439375,0.488589212 L7.87875,6.02489627 L1.5,6.02489627 C0.67125,6.02489627 0,6.693361 0,7.5186722 L0,16.4813278 C0,17.3060166 0.67125,17.9751037 1.5,17.9751037 L7.87875,17.9751037 L13.439375,23.5114108 C14.37875,24.446888 16,23.7896266 16,22.4551867 L16,1.54481328 C16,0.209128631 14.3775,-0.445643154 13.439375,0.488589212 Z M30,12 C30,8.04585062 27.99625,4.41037344 24.639375,2.27551867 C23.94,1.83112033 23.0125,2.03775934 22.569375,2.73983402 C22.12625,3.44190871 22.333125,4.37116183 23.0325,4.81618257 C25.516875,6.39647303 27,9.08153527 27,12 C27,14.9184647 25.516875,17.603527 23.0325,19.1838174 C22.333125,19.6282158 22.12625,20.5574689 22.569375,21.260166 C22.97625,21.9049793 23.889375,22.2024896 24.639375,21.7244813 C27.99625,19.5896266 30,15.9547718 30,12 Z M21.139375,7.21556017 C20.415625,6.82157676 19.5025,7.08112033 19.10125,7.80373444 C18.701875,8.52634855 18.96625,9.43443983 19.691875,9.83340249 C20.49875,10.2746888 21,11.1056017 21,12 C21,12.8950207 20.49875,13.7253112 19.6925,14.1665975 C18.966875,14.5655602 18.7025,15.4736515 19.101875,16.1962656 C19.50375,16.9219917 20.4175,17.179668 21.14,16.7844398 C22.904375,15.8165975 24.000625,13.98361 24.000625,11.9993776 C24.000625,10.0151452 22.904375,8.18278008 21.139375,7.21556017 Z" id="Shape"></path>
        </g>
    </g>
</svg>