<?xml version="1.0" encoding="UTF-8"?>
<svg width="522px" height="522px" viewBox="0 0 522 522" version="1.1" xmlns="http://www.w3.org/2000/svg" xmlns:xlink="http://www.w3.org/1999/xlink">
    <!-- Generator: Sketch 47.1 (45422) - http://www.bohemiancoding.com/sketch -->
    <title>Artboard</title>
    <desc>Created with Sketch.</desc>
    <defs></defs>
    <g id="Page-1" stroke="none" stroke-width="1" fill="none" fill-rule="evenodd">
        <g id="Artboard">
            <rect id="Rectangle-2" fill="#7055A4" x="0" y="0" width="522" height="522"></rect>
            <g id="toilet_new-copy-2" transform="translate(119.000000, 66.000000)">
                <g id="Group">
                    <path d="M177.298913,394.482984 L178.538043,356.223822 L189.380435,313.621728 C189.483696,313.208115 189.896739,312.897906 190.413043,312.897906 C195.98913,312.897906 230.399188,311.311052 253.514392,292.4286 L261.146739,314.34555 L261.146739,343.815445 L177.505435,394.379581 L99.0271739,353.121728 L98.9755685,283.57745 C78.6596875,270.70367 74.8641304,249.51178 74.8641304,249.51178 L5.98913043,209.081152 C0.309782609,205.772251 0.929347826,200.188482 0.929347826,200.188482 L0.516304348,61.421466 L29.1195652,78.7931937 C29.1195652,78.7931937 34.4891304,82.8259162 42.6467391,79.3102094 L135.994565,25.3337696 C135.994565,25.3337696 143.119565,22.5418848 136.717391,18.5091623 L107.391304,1.86125654 C107.391304,1.86125654 102.641304,-1.55104712 96.6521739,1.86125654 L4.54347826,55.2172775 C4.54347826,55.2172775 0.206521739,57.9057592 0.516304348,61.5248691" id="Shape" stroke="#FFFFFF" stroke-width="3"></path>
                    <path d="M99.0271739,283.634817 C99.0271739,283.634817 146.730806,314.971166 190.413043,312.897906" id="Shape" stroke="#FFFFFF" stroke-width="3"></path>
                    <path d="M253.779619,292.927438 C259.309426,287.75347 282.188782,260.101089 279.376266,212.29931" id="Shape" stroke="#FFFFFF" stroke-width="3"></path>
                    <path d="M139.298913,21.7146597 L139.420991,139.74606" id="Shape" stroke="#FFFFFF" stroke-width="3"></path>
                    <path d="M42.2336957,79.6204188 L42.2336957,196.879581 C42.2336957,196.879581 34.3858696,200.602094 28.8097826,195.84555 L28.8097826,78.6897906" id="Shape" stroke="#FFFFFF" stroke-width="3"></path>
                    <path d="M42.2336957,196.879581 L82.0453623,176.26484" id="Shape" stroke="#FFFFFF" stroke-width="3"></path>
                    <polyline id="Shape" stroke="#FFFFFF" stroke-width="3" points="0.826086957 180.024869 28.9130435 196.362565 81.2572724 226.303061"></polyline>
                    <path d="M261.663043,229.865183 C251.027174,254.992147 207.244565,264.815445 160.673913,255.302356 C112.967391,245.479058 83.5380435,215.698953 88.2880435,185.608639 C88.3913043,184.884817 88.5978261,184.160995 88.9076087,183.437173 C102.021739,149.727749 138.266304,146.625654 187.005435,157.379581 C236.157609,168.236911 272.402174,204.221204 261.663043,229.865183 Z" id="Shape"></path>
                    <path d="M280.972826,234.104712 C266.309783,268.848168 219.429348,286.530105 155.201087,273.294503 C88.3913043,259.541885 59.0652174,221.903141 68.5652174,180.748691 C76,148.590314 119.369565,125.73822 192.994565,141.558901 C260.940217,156.965969 295.842391,198.740838 280.972826,234.104712 Z" id="Shape"></path>
                    <path d="M192.20225,281.410442 C164.814336,281.410442 136.526818,273.679596 114.736434,260.125515 C89.9473728,244.764223 75.6536803,223.378895 75.3538126,201.290763 C75.1539009,182.616251 84.7496665,166.050152 102.541815,154.403682 C118.334846,144.06242 139.125672,138.640788 162.615306,138.640788 C190.00322,138.640788 218.290738,146.371634 240.081122,159.925715 C264.870183,175.287007 279.263832,196.772736 279.563699,218.760467 C279.763611,237.334578 270.06789,254.001078 252.375697,265.547147 C236.382754,275.888409 215.591929,281.410442 192.20225,281.410442 Z" id="Shape" stroke="#FFFFFF" stroke-width="3"></path>
                    <path d="M241.526678,248.983493 C213.025314,267.595467 161.645306,265.0619 126.842621,243.429134 C91.9429922,221.796369 86.9019348,189.054886 115.306355,170.540357 C143.807718,151.928383 195.187726,154.46195 229.990412,176.094715 C264.986983,197.727481 270.124984,230.371519 241.526678,248.983493 Z" id="Shape" stroke="#FFFFFF" stroke-width="3"></path>
                </g>
            </g>
        </g>
    </g>
</svg>