<?xml version="1.0" encoding="UTF-8"?>
<svg width="974px" height="728px" viewBox="0 0 974 728" version="1.1" xmlns="http://www.w3.org/2000/svg" xmlns:xlink="http://www.w3.org/1999/xlink">
    <!-- Generator: Sketch 47.1 (45422) - http://www.bohemiancoding.com/sketch -->
    <title>Desktop Copy 2</title>
    <desc>Created with Sketch.</desc>
    <defs>
        <rect id="path-1" x="54.5018927" y="8" width="1.06940063" height="100.295203"></rect>
        <rect id="path-2" x="54.5018927" y="8" width="1.06940063" height="100.295203"></rect>
    </defs>
    <g id="Page-1" stroke="none" stroke-width="1" fill="none" fill-rule="evenodd">
        <g id="Desktop-Copy-2" fill-rule="nonzero">
            <g id="sink_new-copy-2" transform="translate(772.411354, 162.757556) rotate(7.000000) translate(-772.411354, -162.757556) translate(603.411354, 17.757556)">
                <g id="Group">
                    <path d="M116.564669,167.04428 C103.517981,167.04428 90.1504732,163.619926 79.9911672,157.734317 C68.1208202,150.885609 61.2766562,141.147601 61.2766562,131.195572 C61.2766562,126.166052 63.0946372,116.856089 74.8580442,110.00738 C82.1299685,105.833948 91.540694,103.586716 102.2347,103.586716 C115.281388,103.586716 128.648896,107.01107 138.808202,112.896679 C150.678549,119.745387 157.522713,129.483395 157.522713,139.435424 C157.522713,144.464945 155.704732,153.774908 143.941325,160.623616 C136.562461,164.797048 127.044795,167.04428 116.564669,167.04428 Z M102.12776,104.549815 C91.6476341,104.549815 82.4507886,106.690037 75.2858044,110.756458 C63.9501577,117.284133 62.2391167,126.273063 62.2391167,131.088561 C62.2391167,140.719557 68.8694006,150.02952 80.4189274,156.771218 C90.4712934,162.656827 103.624921,165.97417 116.457729,165.97417 C126.830915,165.97417 136.1347,163.833948 143.299685,159.767528 C154.635331,153.239852 156.346372,144.250923 156.346372,139.435424 C156.346372,129.804428 149.716088,120.494465 138.166562,113.752768 C128.114196,107.867159 114.960568,104.549815 102.12776,104.549815 Z" id="Shape" stroke="#FFFFFF" stroke-width="2" fill="#FFFFFF"></path>
                    <path d="M222.970032,227.184502 C209.923344,227.184502 196.555836,223.760148 186.39653,217.874539 C174.526183,211.02583 167.682019,201.287823 167.682019,191.335793 C167.682019,186.306273 169.5,176.99631 181.263407,170.147601 C188.535331,165.97417 197.946057,163.726937 208.640063,163.726937 C221.686751,163.726937 235.054259,167.151292 245.213565,173.0369 C257.083912,179.885609 263.928076,189.623616 263.928076,199.575646 C263.928076,204.605166 262.110095,213.915129 250.346688,220.763838 C242.967823,224.937269 233.557098,227.184502 222.970032,227.184502 Z M208.533123,164.583026 C198.052997,164.583026 188.856151,166.723247 181.691167,170.789668 C170.355521,177.317343 168.644479,186.306273 168.644479,191.121771 C168.644479,200.752768 175.274763,210.062731 186.82429,216.804428 C196.876656,222.690037 210.030284,226.00738 222.863091,226.00738 C233.236278,226.00738 242.540063,223.867159 249.705047,219.800738 C261.040694,213.273063 262.751735,204.284133 262.751735,199.468635 C262.751735,189.837638 256.121451,180.527675 244.571924,173.785978 C234.519558,168.00738 221.365931,164.583026 208.533123,164.583026 Z" id="Shape" stroke="#FFFFFF" stroke-width="2" fill="#FFFFFF"></path>
                    <path d="M155.063091,147.247232 C152.49653,140.291513 146.721767,133.97786 138.273502,129.162362 C128.221136,123.276753 115.067508,119.95941 102.2347,119.95941 C91.7545741,119.95941 82.5577287,122.099631 75.3927445,126.166052 C69.6179811,129.483395 65.6611987,133.870849 63.6293375,139.00738 L62.666877,138.579336 C64.6987382,133.121771 68.8694006,128.627306 74.8580442,125.202952 C82.1299685,121.02952 91.540694,118.782288 102.2347,118.782288 C115.281388,118.782288 128.648896,122.206642 138.808202,128.092251 C147.470347,133.121771 153.458991,139.542435 156.132492,146.819188 L155.063091,147.247232 Z" id="Shape" stroke="#FFFFFF" stroke-width="2" fill="#FFFFFF"></path>
                    <path d="M169.92776,199.361624 L168.9653,199.04059 C169.28612,198.077491 169.82082,197.00738 170.24858,196.04428 L171.211041,196.579336 C170.783281,197.435424 170.355521,198.398524 169.92776,199.361624 Z" id="Shape" stroke="#FFFFFF" stroke-width="2" fill="#FFFFFF"></path>
                    <path d="M261.468454,207.280443 C258.901893,200.324723 253.127129,194.01107 244.678864,189.195572 C234.626498,183.309963 221.472871,179.99262 208.640063,179.99262 C198.159937,179.99262 188.963091,182.132841 181.798107,186.199262 C176.985804,188.98155 173.456782,192.405904 171.211041,196.579336 L170.24858,196.04428 C172.494322,191.763838 176.237224,188.125461 181.263407,185.236162 C188.535331,181.062731 197.946057,178.815498 208.640063,178.815498 C221.686751,178.815498 235.054259,182.239852 245.213565,188.125461 C253.87571,193.154982 259.864353,199.575646 262.537855,206.852399 L261.468454,207.280443 Z" id="Shape" stroke="#FFFFFF" stroke-width="2" fill="#FFFFFF"></path>
                    <path d="M219.120189,260.785978 C213.773186,260.785978 208.426183,259.394834 203.72082,256.612546 L4.9192429,141.575646 C1.81798107,139.756458 0,136.653137 0,133.121771 C0,129.590406 1.81798107,126.380074 4.9192429,124.667897 L103.090221,67.9520295 C112.607886,62.4944649 124.371293,62.4944649 133.888959,67.9520295 L154.421451,79.8302583 L153.886751,80.7933579 L133.354259,68.9151292 C124.157413,63.6715867 112.821767,63.6715867 103.624921,68.9151292 L5.45394322,125.630996 C2.67350158,127.236162 1.06940063,130.01845 1.06940063,133.228782 C1.06940063,136.332103 2.67350158,139.221402 5.45394322,140.826568 L204.255521,255.756458 C213.452366,261.107011 224.788013,261.107011 233.984858,255.756458 L332.476656,198.826568 C335.257098,197.221402 336.861199,194.439114 336.861199,191.228782 C336.861199,188.01845 335.257098,185.236162 332.476656,183.630996 L273.659621,149.601476 L274.194322,148.638376 L333.011356,182.667897 C336.112618,184.487085 337.930599,187.590406 337.930599,191.121771 C337.930599,194.653137 336.112618,197.863469 333.011356,199.575646 L234.519558,256.505535 C229.814196,259.394834 224.467192,260.785978 219.120189,260.785978 Z" id="Shape" stroke="#FFFFFF" stroke-width="2" fill="#FFFFFF"></path>
                    <rect id="Rectangle-path" stroke="#FFFFFF" stroke-width="2" fill="#FFFFFF" transform="translate(213.932356, 114.720511) rotate(-60.019888) translate(-213.932356, -114.720511) " x="213.397655" y="65.7093793" width="1.06940198" height="98.0222642"></rect>
                    <path d="M219.120189,289.785978 C213.773186,289.785978 208.426183,288.394834 203.72082,285.612546 L4.9192429,170.575646 C1.49716088,168.542435 -0.320820189,164.904059 0.106940063,160.944649 L1.17634069,161.051661 C0.748580442,164.583026 2.45962145,167.900369 5.45394322,169.612546 L204.255521,284.756458 C213.452366,290.107011 224.788013,290.107011 233.984858,284.756458 L332.476656,227.826568 C335.364038,226.221402 336.968139,223.225092 336.861199,219.907749 L337.930599,219.907749 C338.037539,223.546125 336.219558,226.97048 333.011356,228.789668 L234.519558,285.719557 C229.814196,288.394834 224.467192,289.785978 219.120189,289.785978 Z" id="Shape" stroke="#FFFFFF" stroke-width="2" fill="#FFFFFF"></path>
                    <g transform="translate(116.495268, 0.000000)">
                        <path d="M47.6577287,113.645756 C45.1981073,113.645756 42.7384858,113.00369 40.8135647,111.933579 C38.5678233,110.649446 37.1776025,108.723247 37.1776025,106.690037 L38.2470032,106.690037 C38.2470032,108.295203 39.3164038,109.793358 41.348265,110.97048 C43.1662461,112.04059 45.4119874,112.575646 47.6577287,112.575646 C49.4757098,112.575646 51.0798107,112.254613 52.2561514,111.505535 C54.1810726,110.435424 54.3949527,108.937269 54.3949527,108.188192 L55.4643533,108.188192 C55.4643533,109.151292 55.1435331,111.077491 52.7908517,112.468635 C51.507571,113.217712 49.6895899,113.645756 47.6577287,113.645756 Z" id="Shape" stroke="#FFFFFF" stroke-width="2" fill="#FFFFFF"></path>
                        <path d="M47.6577287,13.2693727 C45.1981073,13.2693727 42.7384858,12.6273063 40.8135647,11.5571956 C38.5678233,10.2730627 37.1776025,8.34686347 37.1776025,6.31365314 C37.1776025,5.35055351 37.4984227,3.42435424 39.8511041,2.03321033 C41.2413249,1.28413284 43.059306,0.856088561 44.9842271,0.856088561 C47.4438486,0.856088561 49.90347,1.49815498 51.8283912,2.56826568 C54.0741325,3.85239852 55.4643533,5.77859779 55.4643533,7.81180812 C55.4643533,8.77490775 55.1435331,10.701107 52.7908517,12.0922509 C51.507571,12.8413284 49.6895899,13.2693727 47.6577287,13.2693727 Z M45.0911672,1.92619926 C43.2731861,1.92619926 41.6690852,2.24723247 40.4927445,2.99630996 C38.5678233,4.06642066 38.3539432,5.56457565 38.3539432,6.31365314 C38.3539432,7.91881919 39.4233438,9.41697417 41.455205,10.5940959 C43.2731861,11.6642066 45.5189274,12.199262 47.7646688,12.199262 C49.5826498,12.199262 51.1867508,11.8782288 52.3630915,11.1291513 C54.1810726,10.0590406 54.5018927,8.56088561 54.5018927,7.81180812 C54.5018927,6.20664207 53.4324921,4.70848708 51.4006309,3.53136531 C49.5826498,2.46125461 47.3369085,1.92619926 45.0911672,1.92619926 Z" id="Shape" stroke="#FFFFFF" stroke-width="2" fill="#FFFFFF"></path>
                        <path d="M47.6577287,29.4280443 C45.1981073,29.4280443 42.7384858,28.7859779 40.8135647,27.7158672 C38.5678233,26.4317343 37.1776025,24.5055351 37.1776025,22.4723247 L38.2114198,22.510413 C38.2114198,24.1155791 39.3164038,25.5756458 41.348265,26.7527675 C43.1662461,27.8228782 45.4119874,28.3579336 47.6577287,28.3579336 C49.4757098,28.3579336 51.0798107,28.0369004 52.2561514,27.2878229 C54.1810726,26.2177122 54.3949527,24.7195572 54.3949527,23.9704797 L55.4643533,23.9704797 C55.4643533,24.9335793 55.1435331,26.8597786 52.7908517,28.2509225 C51.507571,29 49.6895899,29.4280443 47.6577287,29.4280443 Z" id="Shape" stroke="#FFFFFF" stroke-width="2" fill="#FFFFFF"></path>
                        <path d="M38.2470032,22 L37.1776025,22 C37.1776025,21.697909 37.2845426,21.1692497 37.4984227,20.8671587 L37.7773423,21.087312 C37.5634622,21.389403 38.2470032,21.8489545 38.2470032,22 Z" id="Shape" stroke="#FFFFFF" stroke-width="2" fill="#FFFFFF"></path>
                        <g id="Rectangle-path">
                            <use fill="#FFFFFF" fill-rule="evenodd" xlink:href="#path-1"></use>
                            <rect stroke="#FFFFFF" stroke-width="1" x="54.0018927" y="7.5" width="2.06940063" height="101.295203"></rect>
                        </g>
                        <rect id="Rectangle-path" stroke="#FFFFFF" stroke-width="2" fill="#FFFFFF" x="37.1776025" y="47.9409594" width="1.06940063" height="58.7490775"></rect>
                        <rect id="Rectangle-path" stroke="#FFFFFF" stroke-width="2" fill="#FFFFFF" x="37.1776025" y="6.31365314" width="1.06940063" height="14.8745387"></rect>
                        <polygon id="Shape" stroke="#FFFFFF" stroke-width="2" fill="#FFFFFF" points="14.2166324 59.5038395 14.185489 49.3321033 54.9149193 25.78532 55.2964728 27.0326834 15.2548896 49.9741697 15.3609395 59.2814087 54.7157729 37.4538745 55.2504732 38.3099631 14.8820694 60.4884179"></polygon>
                        <polygon id="Shape" stroke="#FFFFFF" stroke-width="2" fill="#FFFFFF" points="14.3993691 50.1881919 1.62125716 42.4320481 37.4984227 19.904059 37.7171117 21.0291164 3.01201474 42.3911191 14.9340694 49.2250923"></polygon>
                        <polygon id="Shape" stroke="#FFFFFF" stroke-width="2" fill="#FFFFFF" points="14.2623977 60.5976087 0.436373398 53.0977944 0.761604901 43.1852785 1.89152041 42.7945856 1.43355668 52.9039616 14.8938751 59.9056419"></polygon>
                    </g>
                    <g transform="translate(218.882682, 58.781609)">
                        <path d="M47.6577287,113.645756 C45.1981073,113.645756 42.7384858,113.00369 40.8135647,111.933579 C38.5678233,110.649446 37.1776025,108.723247 37.1776025,106.690037 L38.2470032,106.690037 C38.2470032,108.295203 39.3164038,109.793358 41.348265,110.97048 C43.1662461,112.04059 45.4119874,112.575646 47.6577287,112.575646 C49.4757098,112.575646 51.0798107,112.254613 52.2561514,111.505535 C54.1810726,110.435424 54.3949527,108.937269 54.3949527,108.188192 L55.4643533,108.188192 C55.4643533,109.151292 55.1435331,111.077491 52.7908517,112.468635 C51.507571,113.217712 49.6895899,113.645756 47.6577287,113.645756 Z" id="Shape" stroke="#FFFFFF" stroke-width="2" fill="#FFFFFF"></path>
                        <path d="M47.6577287,13.2693727 C45.1981073,13.2693727 42.7384858,12.6273063 40.8135647,11.5571956 C38.5678233,10.2730627 37.1776025,8.34686347 37.1776025,6.31365314 C37.1776025,5.35055351 37.4984227,3.42435424 39.8511041,2.03321033 C41.2413249,1.28413284 43.059306,0.856088561 44.9842271,0.856088561 C47.4438486,0.856088561 49.90347,1.49815498 51.8283912,2.56826568 C54.0741325,3.85239852 55.4643533,5.77859779 55.4643533,7.81180812 C55.4643533,8.77490775 55.1435331,10.701107 52.7908517,12.0922509 C51.507571,12.8413284 49.6895899,13.2693727 47.6577287,13.2693727 Z M45.0911672,1.92619926 C43.2731861,1.92619926 41.6690852,2.24723247 40.4927445,2.99630996 C38.5678233,4.06642066 38.3539432,5.56457565 38.3539432,6.31365314 C38.3539432,7.91881919 39.4233438,9.41697417 41.455205,10.5940959 C43.2731861,11.6642066 45.5189274,12.199262 47.7646688,12.199262 C49.5826498,12.199262 51.1867508,11.8782288 52.3630915,11.1291513 C54.1810726,10.0590406 54.5018927,8.56088561 54.5018927,7.81180812 C54.5018927,6.20664207 53.4324921,4.70848708 51.4006309,3.53136531 C49.5826498,2.46125461 47.3369085,1.92619926 45.0911672,1.92619926 Z" id="Shape" stroke="#FFFFFF" stroke-width="2" fill="#FFFFFF"></path>
                        <path d="M47.6577287,29.4280443 C45.1981073,29.4280443 42.7384858,28.7859779 40.8135647,27.7158672 C38.5678233,26.4317343 37.1776025,24.5055351 37.1776025,22.4723247 L38.2114198,22.510413 C38.2114198,24.1155791 39.3164038,25.5756458 41.348265,26.7527675 C43.1662461,27.8228782 45.4119874,28.3579336 47.6577287,28.3579336 C49.4757098,28.3579336 51.0798107,28.0369004 52.2561514,27.2878229 C54.1810726,26.2177122 54.3949527,24.7195572 54.3949527,23.9704797 L55.4643533,23.9704797 C55.4643533,24.9335793 55.1435331,26.8597786 52.7908517,28.2509225 C51.507571,29 49.6895899,29.4280443 47.6577287,29.4280443 Z" id="Shape" stroke="#FFFFFF" stroke-width="2" fill="#FFFFFF"></path>
                        <path d="M38.2470032,22 L37.1776025,22 C37.1776025,21.697909 37.2845426,21.1692497 37.4984227,20.8671587 L37.7773423,21.087312 C37.5634622,21.389403 38.2470032,21.8489545 38.2470032,22 Z" id="Shape" stroke="#FFFFFF" stroke-width="2" fill="#FFFFFF"></path>
                        <g id="Rectangle-path">
                            <use fill="#FFFFFF" fill-rule="evenodd" xlink:href="#path-2"></use>
                            <rect stroke="#FFFFFF" stroke-width="1" x="54.0018927" y="7.5" width="2.06940063" height="101.295203"></rect>
                        </g>
                        <rect id="Rectangle-path" stroke="#FFFFFF" stroke-width="2" fill="#FFFFFF" x="37.1776025" y="47.9409594" width="1.06940063" height="58.7490775"></rect>
                        <rect id="Rectangle-path" stroke="#FFFFFF" stroke-width="2" fill="#FFFFFF" x="37.1776025" y="6.31365314" width="1.06940063" height="14.8745387"></rect>
                        <polygon id="Shape" stroke="#FFFFFF" stroke-width="2" fill="#FFFFFF" points="14.2166324 59.5038395 14.185489 49.3321033 54.9149193 25.78532 55.2964728 27.0326834 15.2548896 49.9741697 15.3609395 59.2814087 54.7157729 37.4538745 55.2504732 38.3099631 14.8820694 60.4884179"></polygon>
                        <polygon id="Shape" stroke="#FFFFFF" stroke-width="2" fill="#FFFFFF" points="14.3993691 50.1881919 1.62125716 42.4320481 37.4984227 19.904059 37.7171117 21.0291164 3.01201474 42.3911191 14.9340694 49.2250923"></polygon>
                        <polygon id="Shape" stroke="#FFFFFF" stroke-width="2" fill="#FFFFFF" points="14.2623977 60.5976087 0.436373398 53.0977944 0.761604901 43.1852785 1.89152041 42.7945856 1.43355668 52.9039616 14.8938751 59.9056419"></polygon>
                    </g>
                    <rect id="Rectangle-path" stroke="#FFFFFF" stroke-width="2" fill="#FFFFFF" x="0.106940063" y="132.800738" width="1.06940063" height="29.5350554"></rect>
                    <polygon id="Rectangle-path" stroke="#FFFFFF" stroke-width="2" fill="#FFFFFF" points="6.96137961 142.752995 7.97339397 142.628736 7.75985571 169.903863 6.69045508 169.903863"></polygon>
                    <rect id="Rectangle-path" stroke="#FFFFFF" stroke-width="2" fill="#FFFFFF" x="203.50694" y="256.184502" width="1.06940063" height="29"></rect>
                    <rect id="Rectangle-path" stroke="#FFFFFF" stroke-width="2" fill="#FFFFFF" x="233.770978" y="256.184502" width="1.06940063" height="29"></rect>
                    <rect id="Rectangle-path" stroke="#FFFFFF" stroke-width="2" fill="#FFFFFF" x="336.861199" y="191.228782" width="1.06940063" height="29.8560886"></rect>
                    <polygon id="Rectangle-path" stroke="#FFFFFF" stroke-width="2" fill="#FFFFFF" points="330.292613 200.597908 331.362014 200.597908 331.44405 229.45653 330.292613 229.597908"></polygon>
                </g>
            </g>
        </g>
    </g>
</svg>